<mxfile host="drawio-plugin" modified="2023-05-30T13:37:03.076Z" agent="5.0 (X11; Linux x86_64) AppleWebKit/537.36 (KHTML, like Gecko) Chrome/104.0.5112.102 Safari/537.36" etag="IC2VyUClHzV4cRAJ6Wyh" version="20.5.3" type="embed"><diagram id="23iRSUPoRavnBvh4doch" name="Page-1"><mxGraphModel dx="-102" dy="661" grid="0" gridSize="10" guides="1" tooltips="1" connect="1" arrows="1" fold="1" page="0" pageScale="1" pageWidth="827" pageHeight="1169" math="0" shadow="0"><root><mxCell id="0"/><mxCell id="1" parent="0"/><mxCell id="22" style="edgeStyle=orthogonalEdgeStyle;rounded=0;orthogonalLoop=1;jettySize=auto;html=1;exitX=0;exitY=0.5;exitDx=0;exitDy=0;" edge="1" parent="1" source="3" target="16"><mxGeometry relative="1" as="geometry"/></mxCell><mxCell id="23" style="edgeStyle=orthogonalEdgeStyle;rounded=0;orthogonalLoop=1;jettySize=auto;html=1;exitX=1;exitY=0.5;exitDx=0;exitDy=0;entryX=0;entryY=0;entryDx=0;entryDy=15;entryPerimeter=0;" edge="1" parent="1" source="3" target="20"><mxGeometry relative="1" as="geometry"/></mxCell><mxCell id="3" value="customer&lt;br&gt;microservice" style="rounded=0;whiteSpace=wrap;html=1;" vertex="1" parent="1"><mxGeometry x="860" y="67" width="120" height="60" as="geometry"/></mxCell><mxCell id="38" style="edgeStyle=orthogonalEdgeStyle;rounded=0;orthogonalLoop=1;jettySize=auto;html=1;exitX=1;exitY=0.5;exitDx=0;exitDy=0;entryX=0;entryY=0;entryDx=0;entryDy=65;entryPerimeter=0;" edge="1" parent="1" source="4" target="27"><mxGeometry relative="1" as="geometry"/></mxCell><mxCell id="4" value="notification&lt;br&gt;microservice" style="rounded=0;whiteSpace=wrap;html=1;" vertex="1" parent="1"><mxGeometry x="1060" y="635" width="120" height="60" as="geometry"/></mxCell><mxCell id="52" style="edgeStyle=orthogonalEdgeStyle;rounded=0;orthogonalLoop=1;jettySize=auto;html=1;exitX=1;exitY=0.5;exitDx=0;exitDy=0;" edge="1" parent="1" source="5" target="51"><mxGeometry relative="1" as="geometry"/></mxCell><mxCell id="5" value="order&lt;br&gt;microservice" style="rounded=0;whiteSpace=wrap;html=1;" vertex="1" parent="1"><mxGeometry x="1273.2" y="424" width="120" height="60" as="geometry"/></mxCell><mxCell id="47" style="edgeStyle=orthogonalEdgeStyle;rounded=0;orthogonalLoop=1;jettySize=auto;html=1;exitX=0;exitY=0.5;exitDx=0;exitDy=0;entryX=0.875;entryY=0.5;entryDx=0;entryDy=0;entryPerimeter=0;" edge="1" parent="1" source="6" target="46"><mxGeometry relative="1" as="geometry"/></mxCell><mxCell id="49" style="edgeStyle=orthogonalEdgeStyle;rounded=0;orthogonalLoop=1;jettySize=auto;html=1;exitX=0;exitY=0.5;exitDx=0;exitDy=0;entryX=1;entryY=0.5;entryDx=0;entryDy=0;entryPerimeter=0;" edge="1" parent="1" source="6" target="48"><mxGeometry relative="1" as="geometry"/></mxCell><mxCell id="6" value="payment&lt;br&gt;microservice" style="rounded=0;whiteSpace=wrap;html=1;" vertex="1" parent="1"><mxGeometry x="872" y="520" width="120" height="60" as="geometry"/></mxCell><mxCell id="42" style="edgeStyle=orthogonalEdgeStyle;rounded=0;orthogonalLoop=1;jettySize=auto;html=1;exitX=0;exitY=0.5;exitDx=0;exitDy=0;" edge="1" parent="1" source="7" target="41"><mxGeometry relative="1" as="geometry"/></mxCell><mxCell id="7" value="trade&lt;br&gt;microservice" style="rounded=0;whiteSpace=wrap;html=1;" vertex="1" parent="1"><mxGeometry x="857" y="296" width="120" height="60" as="geometry"/></mxCell><mxCell id="35" style="edgeStyle=orthogonalEdgeStyle;rounded=0;orthogonalLoop=1;jettySize=auto;html=1;exitX=1;exitY=0.5;exitDx=0;exitDy=0;entryX=0;entryY=0.5;entryDx=0;entryDy=0;entryPerimeter=0;" edge="1" parent="1" source="8" target="34"><mxGeometry relative="1" as="geometry"/></mxCell><mxCell id="37" style="edgeStyle=orthogonalEdgeStyle;rounded=0;orthogonalLoop=1;jettySize=auto;html=1;exitX=0;exitY=0.5;exitDx=0;exitDy=0;entryX=1;entryY=0;entryDx=0;entryDy=129;entryPerimeter=0;" edge="1" parent="1" source="8" target="20"><mxGeometry relative="1" as="geometry"><mxPoint x="1243" y="246" as="targetPoint"/></mxGeometry></mxCell><mxCell id="8" value="weather&lt;br&gt;microservice" style="rounded=0;whiteSpace=wrap;html=1;" vertex="1" parent="1"><mxGeometry x="1243.2" y="166" width="120" height="60" as="geometry"/></mxCell><mxCell id="16" value="Customer DB" style="shape=cylinder3;whiteSpace=wrap;html=1;boundedLbl=1;backgroundOutline=1;size=15;" vertex="1" parent="1"><mxGeometry x="733" y="47" width="70" height="100" as="geometry"/></mxCell><mxCell id="24" style="edgeStyle=orthogonalEdgeStyle;rounded=0;orthogonalLoop=1;jettySize=auto;html=1;exitX=0.5;exitY=1;exitDx=0;exitDy=0;exitPerimeter=0;" edge="1" parent="1" source="20" target="4"><mxGeometry relative="1" as="geometry"/></mxCell><mxCell id="40" style="edgeStyle=orthogonalEdgeStyle;rounded=0;orthogonalLoop=1;jettySize=auto;html=1;exitX=0;exitY=0.5;exitDx=0;exitDy=0;exitPerimeter=0;entryX=1;entryY=0.5;entryDx=0;entryDy=0;" edge="1" parent="1" source="20" target="7"><mxGeometry relative="1" as="geometry"/></mxCell><mxCell id="43" style="edgeStyle=orthogonalEdgeStyle;rounded=0;orthogonalLoop=1;jettySize=auto;html=1;exitX=1;exitY=0;exitDx=0;exitDy=357;exitPerimeter=0;entryX=0;entryY=0.5;entryDx=0;entryDy=0;" edge="1" parent="1" source="20" target="5"><mxGeometry relative="1" as="geometry"/></mxCell><mxCell id="45" style="edgeStyle=orthogonalEdgeStyle;rounded=0;orthogonalLoop=1;jettySize=auto;html=1;exitX=0;exitY=1;exitDx=0;exitDy=-15;exitPerimeter=0;entryX=1;entryY=0.5;entryDx=0;entryDy=0;" edge="1" parent="1" source="20" target="6"><mxGeometry relative="1" as="geometry"><mxPoint x="985" y="551" as="targetPoint"/></mxGeometry></mxCell><mxCell id="20" value="" style="shape=cylinder3;whiteSpace=wrap;html=1;boundedLbl=1;backgroundOutline=1;size=15;" vertex="1" parent="1"><mxGeometry x="1060" y="80" width="120" height="486" as="geometry"/></mxCell><mxCell id="21" value="Message Broker (Apache Kafka, RabbitMQ" style="text;html=1;strokeColor=none;fillColor=none;align=center;verticalAlign=middle;whiteSpace=wrap;rounded=0;" vertex="1" parent="1"><mxGeometry x="1070" y="110" width="100" height="70" as="geometry"/></mxCell><mxCell id="27" value="EMAIL" style="shape=card;whiteSpace=wrap;html=1;" vertex="1" parent="1"><mxGeometry x="1340" y="599" width="60" height="100" as="geometry"/></mxCell><mxCell id="29" value="external&lt;br&gt;weatherAPI" style="ellipse;shape=cloud;whiteSpace=wrap;html=1;" vertex="1" parent="1"><mxGeometry x="1204" y="-27" width="170" height="110" as="geometry"/></mxCell><mxCell id="34" value="Weather DB" style="shape=cylinder3;whiteSpace=wrap;html=1;boundedLbl=1;backgroundOutline=1;size=15;" vertex="1" parent="1"><mxGeometry x="1433.2" y="141" width="100" height="110" as="geometry"/></mxCell><mxCell id="41" value="trade&lt;br&gt;DB" style="shape=cylinder3;whiteSpace=wrap;html=1;boundedLbl=1;backgroundOutline=1;size=15;" vertex="1" parent="1"><mxGeometry x="723" y="260" width="83" height="100" as="geometry"/></mxCell><mxCell id="46" value="Przelewy24&lt;br&gt;PAYU" style="ellipse;shape=cloud;whiteSpace=wrap;html=1;" vertex="1" parent="1"><mxGeometry x="547" y="414" width="186" height="131" as="geometry"/></mxCell><mxCell id="48" value="payment&lt;br&gt;db" style="shape=cylinder3;whiteSpace=wrap;html=1;boundedLbl=1;backgroundOutline=1;size=15;" vertex="1" parent="1"><mxGeometry x="655" y="586" width="78" height="116" as="geometry"/></mxCell><mxCell id="50" value="sending --&amp;gt;" style="text;html=1;strokeColor=none;fillColor=none;align=center;verticalAlign=middle;whiteSpace=wrap;rounded=0;" vertex="1" parent="1"><mxGeometry x="1221" y="629" width="94" height="30" as="geometry"/></mxCell><mxCell id="51" value="order &lt;br&gt;DB" style="shape=cylinder3;whiteSpace=wrap;html=1;boundedLbl=1;backgroundOutline=1;size=15;" vertex="1" parent="1"><mxGeometry x="1458.2" y="399.5" width="88" height="109" as="geometry"/></mxCell><mxCell id="3AYaro5zgaJiwKOfR6eW-53" value="&lt;font style=&quot;font-size: 48px;&quot;&gt;internal communication of microservices&amp;nbsp;&lt;/font&gt;" style="text;html=1;strokeColor=none;fillColor=none;align=center;verticalAlign=middle;whiteSpace=wrap;rounded=0;" vertex="1" parent="1"><mxGeometry x="897" y="-228" width="455" height="198" as="geometry"/></mxCell><mxCell id="3AYaro5zgaJiwKOfR6eW-77" value="" style="group" vertex="1" connectable="0" parent="1"><mxGeometry x="855" y="-41" width="81" height="58" as="geometry"/></mxCell><mxCell id="3AYaro5zgaJiwKOfR6eW-73" value="" style="rounded=0;orthogonalLoop=1;jettySize=auto;html=1;endArrow=none;endFill=0;sketch=0;sourcePerimeterSpacing=0;targetPerimeterSpacing=0;fontSize=48;exitX=0.5;exitY=0;exitDx=0;exitDy=0;" edge="1" parent="3AYaro5zgaJiwKOfR6eW-77" source="3"><mxGeometry relative="1" as="geometry"><mxPoint x="71" y="98" as="sourcePoint"/><mxPoint x="71" y="55" as="targetPoint"/></mxGeometry></mxCell><mxCell id="3AYaro5zgaJiwKOfR6eW-74" value="" style="rounded=0;orthogonalLoop=1;jettySize=auto;html=1;endArrow=halfCircle;endFill=0;entryX=0.5;entryY=0.5;endSize=6;strokeWidth=1;sketch=0;fontSize=48;fillColor=#a20025;strokeColor=#6F0000;" edge="1" parent="3AYaro5zgaJiwKOfR6eW-77" target="3AYaro5zgaJiwKOfR6eW-75"><mxGeometry relative="1" as="geometry"><mxPoint x="11" y="53" as="sourcePoint"/><Array as="points"/></mxGeometry></mxCell><mxCell id="3AYaro5zgaJiwKOfR6eW-75" value="" style="ellipse;whiteSpace=wrap;html=1;align=center;aspect=fixed;resizable=0;points=[];outlineConnect=0;sketch=0;fontSize=48;" vertex="1" parent="3AYaro5zgaJiwKOfR6eW-77"><mxGeometry x="66" y="48" width="10" height="10" as="geometry"/></mxCell><mxCell id="3AYaro5zgaJiwKOfR6eW-76" value="&lt;font color=&quot;#cc0000&quot; style=&quot;font-size: 10px;&quot;&gt;REST Controller&lt;/font&gt;" style="text;html=1;strokeColor=none;fillColor=none;align=center;verticalAlign=middle;whiteSpace=wrap;rounded=0;fontSize=48;" vertex="1" parent="3AYaro5zgaJiwKOfR6eW-77"><mxGeometry width="81" height="37" as="geometry"/></mxCell><mxCell id="3AYaro5zgaJiwKOfR6eW-92" value="" style="group" vertex="1" connectable="0" parent="1"><mxGeometry x="883" y="423" width="83" height="53" as="geometry"/></mxCell><mxCell id="3AYaro5zgaJiwKOfR6eW-93" value="" style="rounded=0;orthogonalLoop=1;jettySize=auto;html=1;endArrow=none;endFill=0;sketch=0;sourcePerimeterSpacing=0;targetPerimeterSpacing=0;fontSize=48;exitX=0.5;exitY=0;exitDx=0;exitDy=0;" edge="1" parent="3AYaro5zgaJiwKOfR6eW-92" source="6"><mxGeometry relative="1" as="geometry"><mxPoint x="72.75308641975309" y="89.55172413793103" as="sourcePoint"/><mxPoint x="72.75308641975309" y="50.258620689655174" as="targetPoint"/></mxGeometry></mxCell><mxCell id="3AYaro5zgaJiwKOfR6eW-94" value="" style="rounded=0;orthogonalLoop=1;jettySize=auto;html=1;endArrow=halfCircle;endFill=0;entryX=0.5;entryY=0.5;endSize=6;strokeWidth=1;sketch=0;fontSize=48;fillColor=#a20025;strokeColor=#6F0000;" edge="1" parent="3AYaro5zgaJiwKOfR6eW-92" target="3AYaro5zgaJiwKOfR6eW-95"><mxGeometry relative="1" as="geometry"><mxPoint x="11.271604938271606" y="48.43103448275862" as="sourcePoint"/><Array as="points"/></mxGeometry></mxCell><mxCell id="3AYaro5zgaJiwKOfR6eW-95" value="" style="ellipse;whiteSpace=wrap;html=1;align=center;aspect=fixed;resizable=0;points=[];outlineConnect=0;sketch=0;fontSize=48;" vertex="1" parent="3AYaro5zgaJiwKOfR6eW-92"><mxGeometry x="67.62962962962963" y="43.86206896551724" width="10" height="10" as="geometry"/></mxCell><mxCell id="3AYaro5zgaJiwKOfR6eW-96" value="&lt;font color=&quot;#cc0000&quot; style=&quot;font-size: 10px;&quot;&gt;REST Controller&lt;/font&gt;" style="text;html=1;strokeColor=none;fillColor=none;align=center;verticalAlign=middle;whiteSpace=wrap;rounded=0;fontSize=48;" vertex="1" parent="3AYaro5zgaJiwKOfR6eW-92"><mxGeometry width="83" height="33.810344827586206" as="geometry"/></mxCell><mxCell id="3AYaro5zgaJiwKOfR6eW-97" value="" style="group" vertex="1" connectable="0" parent="1"><mxGeometry x="1295" y="318" width="81" height="58" as="geometry"/></mxCell><mxCell id="3AYaro5zgaJiwKOfR6eW-98" value="" style="rounded=0;orthogonalLoop=1;jettySize=auto;html=1;endArrow=none;endFill=0;sketch=0;sourcePerimeterSpacing=0;targetPerimeterSpacing=0;fontSize=48;exitX=0.5;exitY=0;exitDx=0;exitDy=0;" edge="1" parent="3AYaro5zgaJiwKOfR6eW-97" source="5"><mxGeometry relative="1" as="geometry"><mxPoint x="71" y="98" as="sourcePoint"/><mxPoint x="71" y="55" as="targetPoint"/></mxGeometry></mxCell><mxCell id="3AYaro5zgaJiwKOfR6eW-99" value="" style="rounded=0;orthogonalLoop=1;jettySize=auto;html=1;endArrow=halfCircle;endFill=0;entryX=0.5;entryY=0.5;endSize=6;strokeWidth=1;sketch=0;fontSize=48;fillColor=#a20025;strokeColor=#6F0000;" edge="1" parent="3AYaro5zgaJiwKOfR6eW-97" target="3AYaro5zgaJiwKOfR6eW-100"><mxGeometry relative="1" as="geometry"><mxPoint x="11" y="53" as="sourcePoint"/><Array as="points"/></mxGeometry></mxCell><mxCell id="3AYaro5zgaJiwKOfR6eW-100" value="" style="ellipse;whiteSpace=wrap;html=1;align=center;aspect=fixed;resizable=0;points=[];outlineConnect=0;sketch=0;fontSize=48;" vertex="1" parent="3AYaro5zgaJiwKOfR6eW-97"><mxGeometry x="66" y="48" width="10" height="10" as="geometry"/></mxCell><mxCell id="3AYaro5zgaJiwKOfR6eW-101" value="&lt;font color=&quot;#cc0000&quot; style=&quot;font-size: 10px;&quot;&gt;REST Controller&lt;/font&gt;" style="text;html=1;strokeColor=none;fillColor=none;align=center;verticalAlign=middle;whiteSpace=wrap;rounded=0;fontSize=48;" vertex="1" parent="3AYaro5zgaJiwKOfR6eW-97"><mxGeometry width="81" height="37" as="geometry"/></mxCell><mxCell id="3AYaro5zgaJiwKOfR6eW-109" value="" style="group" vertex="1" connectable="0" parent="1"><mxGeometry x="876" y="206" width="83" height="53" as="geometry"/></mxCell><mxCell id="3AYaro5zgaJiwKOfR6eW-110" value="" style="rounded=0;orthogonalLoop=1;jettySize=auto;html=1;endArrow=none;endFill=0;sketch=0;sourcePerimeterSpacing=0;targetPerimeterSpacing=0;fontSize=48;exitX=0.5;exitY=0;exitDx=0;exitDy=0;" edge="1" parent="3AYaro5zgaJiwKOfR6eW-109" source="7"><mxGeometry relative="1" as="geometry"><mxPoint x="72.75308641975309" y="89.55172413793103" as="sourcePoint"/><mxPoint x="72.75308641975309" y="50.258620689655174" as="targetPoint"/></mxGeometry></mxCell><mxCell id="3AYaro5zgaJiwKOfR6eW-111" value="" style="rounded=0;orthogonalLoop=1;jettySize=auto;html=1;endArrow=halfCircle;endFill=0;entryX=0.5;entryY=0.5;endSize=6;strokeWidth=1;sketch=0;fontSize=48;fillColor=#a20025;strokeColor=#6F0000;" edge="1" parent="3AYaro5zgaJiwKOfR6eW-109" target="3AYaro5zgaJiwKOfR6eW-112"><mxGeometry relative="1" as="geometry"><mxPoint x="11.271604938271606" y="48.43103448275862" as="sourcePoint"/><Array as="points"/></mxGeometry></mxCell><mxCell id="3AYaro5zgaJiwKOfR6eW-112" value="" style="ellipse;whiteSpace=wrap;html=1;align=center;aspect=fixed;resizable=0;points=[];outlineConnect=0;sketch=0;fontSize=48;" vertex="1" parent="3AYaro5zgaJiwKOfR6eW-109"><mxGeometry x="67.62962962962963" y="43.86206896551724" width="10" height="10" as="geometry"/></mxCell><mxCell id="3AYaro5zgaJiwKOfR6eW-113" value="&lt;font color=&quot;#cc0000&quot; style=&quot;font-size: 10px;&quot;&gt;REST Controller&lt;/font&gt;" style="text;html=1;strokeColor=none;fillColor=none;align=center;verticalAlign=middle;whiteSpace=wrap;rounded=0;fontSize=48;" vertex="1" parent="3AYaro5zgaJiwKOfR6eW-109"><mxGeometry width="83" height="33.810344827586206" as="geometry"/></mxCell><mxCell id="3AYaro5zgaJiwKOfR6eW-114" value="" style="group" vertex="1" connectable="0" parent="1"><mxGeometry x="1298" y="75" width="9" height="1" as="geometry"/></mxCell><mxCell id="3AYaro5zgaJiwKOfR6eW-116" value="" style="rounded=0;orthogonalLoop=1;jettySize=auto;html=1;endArrow=halfCircle;endFill=0;entryX=0.5;entryY=0.5;endSize=6;strokeWidth=1;sketch=0;fontSize=48;fillColor=#a20025;strokeColor=#6F0000;" edge="1" parent="3AYaro5zgaJiwKOfR6eW-114" target="3AYaro5zgaJiwKOfR6eW-117"><mxGeometry relative="1" as="geometry"><mxPoint x="1.2222222222222225" y="0.9137931034482759" as="sourcePoint"/><Array as="points"/></mxGeometry></mxCell><mxCell id="3AYaro5zgaJiwKOfR6eW-118" value="&lt;font color=&quot;#cc0000&quot; style=&quot;font-size: 10px;&quot;&gt;REST template&lt;/font&gt;" style="text;html=1;strokeColor=none;fillColor=none;align=center;verticalAlign=middle;whiteSpace=wrap;rounded=0;fontSize=48;" vertex="1" parent="1"><mxGeometry x="1298" y="76.19" width="83" height="33.810344827586206" as="geometry"/></mxCell><mxCell id="3AYaro5zgaJiwKOfR6eW-115" value="" style="rounded=0;orthogonalLoop=1;jettySize=auto;html=1;endArrow=none;endFill=0;sketch=0;sourcePerimeterSpacing=0;targetPerimeterSpacing=0;fontSize=48;exitX=0.5;exitY=0;exitDx=0;exitDy=0;" edge="1" parent="1" source="8"><mxGeometry relative="1" as="geometry"><mxPoint x="1304.0030864197531" y="162.29172413793103" as="sourcePoint"/><mxPoint x="1303" y="134" as="targetPoint"/></mxGeometry></mxCell><mxCell id="3AYaro5zgaJiwKOfR6eW-117" value="" style="ellipse;whiteSpace=wrap;html=1;align=center;aspect=fixed;resizable=0;points=[];outlineConnect=0;sketch=0;fontSize=48;" vertex="1" parent="1"><mxGeometry x="1297.9996296296297" y="125.00206896551724" width="10" height="10" as="geometry"/></mxCell></root></mxGraphModel></diagram></mxfile>